<svg preserveAspectRatio="none" width="100%" height="100%" overflow="visible" style="display: block;" viewBox="0 0 96 18" fill="none" xmlns="http://www.w3.org/2000/svg">
<g id="Vector">
<path d="M18.7778 0L22.6365 4.49091L4.8252 8.67478L0.325195 4.17478L18.7778 0Z" fill="#57B660"/>
<path d="M18.4526 7L22.3113 11.4909L4.5 15.6748L0 11.1748L18.4526 7Z" fill="#57B660"/>
<path d="M36.9966 4.64107L34.7646 5.32507C34.6386 4.62307 34.0626 3.52507 32.4426 3.52507C31.2366 3.52507 30.4446 4.29907 30.4446 5.14507C30.4446 5.84707 30.8946 6.40507 31.8306 6.58507L33.6126 6.92707C35.9346 7.37707 37.1766 8.88907 37.1766 10.6891C37.1766 12.6511 35.5386 14.6311 32.5686 14.6311C29.1846 14.6311 27.6906 12.4531 27.4926 10.6351L29.7966 10.0231C29.9046 11.2831 30.7866 12.4171 32.5866 12.4171C33.9186 12.4171 34.6566 11.7511 34.6566 10.8511C34.6566 10.1131 34.0986 9.53707 33.1086 9.33907L31.3266 8.97907C29.2926 8.56507 27.9786 7.25107 27.9786 5.32507C27.9786 3.05707 30.0126 1.32907 32.4246 1.32907C35.5206 1.32907 36.7086 3.20107 36.9966 4.64107Z" fill="var(--fill-0, white)"/>
<path d="M41.2242 17.7811H38.8302V5.50507H41.1522V6.58507C41.5482 5.90107 42.5382 5.30707 43.8702 5.30707C46.4622 5.30707 47.9562 7.28707 47.9562 9.91507C47.9562 12.5971 46.2822 14.5771 43.7802 14.5771C42.5562 14.5771 41.6562 14.0911 41.2242 13.4971V17.7811ZM45.5982 9.93307C45.5982 8.36707 44.6262 7.44907 43.4022 7.44907C42.1782 7.44907 41.1882 8.36707 41.1882 9.93307C41.1882 11.4991 42.1782 12.4351 43.4022 12.4351C44.6262 12.4351 45.5982 11.5171 45.5982 9.93307Z" fill="var(--fill-0, white)"/>
<path d="M53.8297 12.4531C54.9997 12.4531 56.0797 11.6071 56.0797 9.93307C56.0797 8.25907 54.9997 7.41307 53.8297 7.41307C52.6597 7.41307 51.5797 8.25907 51.5797 9.93307C51.5797 11.5891 52.6597 12.4531 53.8297 12.4531ZM53.8297 5.23507C56.4757 5.23507 58.4737 7.19707 58.4737 9.93307C58.4737 12.6511 56.4757 14.6311 53.8297 14.6311C51.1837 14.6311 49.1857 12.6511 49.1857 9.93307C49.1857 7.19707 51.1837 5.23507 53.8297 5.23507Z" fill="var(--fill-0, white)"/>
<path d="M63.2803 2.85907V5.50507H65.0623V7.62907H63.2803V11.3371C63.2803 12.1111 63.6403 12.3631 64.3243 12.3631C64.6123 12.3631 64.9363 12.3271 65.0623 12.2911V14.2711C64.8463 14.3611 64.4143 14.4871 63.7123 14.4871C61.9843 14.4871 60.9043 13.4611 60.9043 11.7511V7.62907H59.3023V5.50507H59.7523C60.6883 5.50507 61.1203 4.89307 61.1203 4.10107V2.85907H63.2803Z" fill="var(--fill-0, white)"/>
<path d="M69.4899 14.3611H67.0959V5.50507H69.4899V14.3611ZM66.8079 2.60707C66.8079 1.77907 67.4739 1.11307 68.2839 1.11307C69.1119 1.11307 69.7599 1.77907 69.7599 2.60707C69.7599 3.39907 69.1119 4.06507 68.2839 4.06507C67.4739 4.06507 66.8079 3.39907 66.8079 2.60707Z" fill="var(--fill-0, white)"/>
<path d="M73.7989 8.92507H77.7589C77.7229 8.04307 77.1469 7.17907 75.7789 7.17907C74.5369 7.17907 73.8529 8.11507 73.7989 8.92507ZM77.9929 11.2291L79.9909 11.8231C79.5409 13.3531 78.1369 14.6311 75.9589 14.6311C73.5289 14.6311 71.3869 12.8851 71.3869 9.89707C71.3869 7.07107 73.4749 5.23507 75.7429 5.23507C78.4789 5.23507 80.1169 6.98107 80.1169 9.82507C80.1169 10.1671 80.0809 10.5271 80.0809 10.5631H73.7449C73.7989 11.7331 74.7889 12.5791 75.9769 12.5791C77.0929 12.5791 77.7049 12.0211 77.9929 11.2291Z" fill="var(--fill-0, white)"/>
<path d="M84.3961 14.3611H82.0021V5.50507H84.2881V6.58507C84.7741 5.72107 85.9081 5.25307 86.8801 5.25307C88.0861 5.25307 89.0581 5.77507 89.5081 6.72907C90.2101 5.64907 91.1461 5.25307 92.3161 5.25307C93.9541 5.25307 95.5201 6.24307 95.5201 8.61907V14.3611H93.1981V9.10507C93.1981 8.15107 92.7301 7.43107 91.6321 7.43107C90.6061 7.43107 89.9941 8.22307 89.9941 9.17707V14.3611H87.6181V9.10507C87.6181 8.15107 87.1321 7.43107 86.0521 7.43107C85.0081 7.43107 84.3961 8.20507 84.3961 9.17707V14.3611Z" fill="var(--fill-0, white)"/>
</g>
</svg>
