<svg preserveAspectRatio="none" width="100%" height="100%" overflow="visible" style="display: block;" viewBox="0 0 18 18" fill="none" xmlns="http://www.w3.org/2000/svg">
<path id="icon" fill-rule="evenodd" clip-rule="evenodd" d="M10 2C13.3137 2 16 4.68629 16 8C16 11.3137 13.3137 14 10 14C6.68629 14 4 11.3137 4 8C4 4.68629 6.68629 2 10 2ZM5.09427 14.3198C6.44897 15.3729 8.15125 16 10 16C14.4183 16 18 12.4183 18 8C18 3.58172 14.4183 0 10 0C5.58172 0 2 3.58172 2 8C2 9.84875 2.62711 11.551 3.68021 12.9057L0.292969 16.293C-0.0975553 16.6835 -0.0975553 17.3165 0.292969 17.707C0.683493 18.0976 1.31651 18.0976 1.70703 17.707L5.09427 14.3198Z" fill="var(--fill-0, white)" fill-opacity="0.5"/>
</svg>
